# xmcd CD database file
#
# Track frame offsets:
#	150
#	24552
#	41215
#	59970
#	79335
#	102470
#	121725
#	137535
#	157825
#	179495
#
# Disc length: 2627 seconds
#
# Revision: 11
# Processed by: cddbd v1.5.2PL0 Copyright (c) Steve Scherf et al.
# Submitted via: CDex 1.51
#
DISCID=890a410a
DTITLE=Bon Jovi - Slippery When Wet
DYEAR=1986
DGENRE=Rock
TTITLE0=Let It Rock
TTITLE1=You Give Love A Bad Name
TTITLE2=Livin' On A Prayer
TTITLE3=Social Disease
TTITLE4=Wanted Dead Or Alive
TTITLE5=Raise Your Hands
TTITLE6=Without Love
TTITLE7=I'd Die For You
TTITLE8=Never Say Goodbye
TTITLE9=Wild In The Streets
EXTD=YEAR: 1986
EXTT0=
EXTT1=
EXTT2=
EXTT3=
EXTT4=
EXTT5=
EXTT6=
EXTT7=
EXTT8=
EXTT9=
PLAYORDER=
